<?xml version="1.0" encoding="iso-8859-1"?>
<!-- Generator: Adobe Illustrator 16.0.0, SVG Export Plug-In . SVG Version: 6.00 Build 0)  -->
<!DOCTYPE svg PUBLIC "-//W3C//DTD SVG 1.1//EN" "http://www.w3.org/Graphics/SVG/1.1/DTD/svg11.dtd">
<svg version="1.1" id="Capa_1" xmlns="http://www.w3.org/2000/svg" xmlns:xlink="http://www.w3.org/1999/xlink" x="0px" y="0px"
	 width="21.744px" height="21.744px" viewBox="0 0 21.744 21.744" style="enable-background:new 0 0 21.744 21.744;"
	 xml:space="preserve">
<g>
	<g>
		<path d="M18.683,13.269l3.062-1.074l-1.106-0.261c1.335-2.376-0.232-3.898-1.758-4.167c-0.732-0.128-1.418-0.086-2.073,0.036
			c-0.821-0.321-1.87-0.572-3.063-0.729c0.045-0.075,0.094-0.142,0.136-0.22c0.924-1.699,1.089-3.394,0.369-3.787
			c-0.633-0.345-1.736,0.426-2.621,1.765c-0.058-0.171-0.108-0.341-0.181-0.512c-0.961-2.287-2.842-3.678-4.203-3.106
			C5.883,1.786,5.561,4.103,6.523,6.39C6.65,6.692,6.794,6.975,6.949,7.244C6.486,7.333,6.055,7.44,5.659,7.558
			C4.826,7.159,3.978,6.887,3.077,7.028C1.074,7.344,0.846,10.339,0,10.209l0.454,2.474c1.358,0.022,1.775-1.619,2.604-2.627v2.27
			c0,1.438,3.497,2.604,7.812,2.604c4.315,0,7.812-1.166,7.812-2.604V9.977C19.077,10.836,18.841,12.353,18.683,13.269z
			 M18.162,9.493c0,0.85-2.84,2.083-7.291,2.083c-4.337,0-7.137-1.169-7.278-2.015c0.205-0.135,0.435-0.232,0.703-0.265
			c2.631-0.318,4.495,1.083,6.152,0.327c0.236-0.107,0.403-0.177,0.486-0.23c0.042,0,0.077,0.004,0.122,0.002
			c0.629,0.747,4.405-0.686,6.947-0.031c0.06,0.015,0.097,0.055,0.15,0.078C18.154,9.458,18.162,9.477,18.162,9.493z M11.958,7.438
			c0.322,0.016,0.631,0.037,0.932,0.064c-0.435,0.717-0.971,1.223-1.394,1.326C11.743,8.459,11.897,7.982,11.958,7.438z
			 M10.958,7.411c0.108,0.001,0.213,0.004,0.322,0.006c-0.022,0.462-0.134,0.869-0.35,1.153C10.81,8.311,10.829,7.891,10.958,7.411z
			 M10.599,8.865c-0.037,0.021-0.069,0.053-0.11,0.07C10.387,8.979,10.279,9,10.169,9.01c-0.007,0.001-0.013,0.003-0.019,0.004
			C9.477,9.059,8.694,8.492,8.139,7.578c0.729-0.093,1.534-0.152,2.403-0.163C10.429,8.013,10.437,8.529,10.599,8.865z
			 M15.854,8.032c-1.408,0.421-2.679,1.072-3.937,1.055c0.494-0.279,1.039-0.818,1.526-1.527
			C14.369,7.671,15.181,7.836,15.854,8.032z M13.251,4.896c0.415,0.226,0.364,1.134-0.088,2.106
			c-0.385-0.039-0.786-0.065-1.194-0.085c0.002-0.402-0.025-0.821-0.118-1.262C12.355,5.034,12.909,4.709,13.251,4.896z
			 M11.262,6.895c-0.042,0-0.083-0.001-0.125-0.002c0.035-0.083,0.061-0.165,0.102-0.25C11.252,6.729,11.252,6.811,11.262,6.895z
			 M7.818,6.963C7.207,5.51,7.413,4.039,8.276,3.675c0.864-0.362,2.06,0.521,2.67,1.975c0.036,0.083,0.058,0.167,0.089,0.25
			c-0.159,0.342-0.278,0.673-0.371,0.993C9.679,6.901,8.74,6.968,7.878,7.088C7.859,7.045,7.837,7.006,7.818,6.963z M7.259,7.714
			c0.379,0.543,0.805,1.002,1.253,1.325C7.783,8.741,7.066,8.305,6.345,7.91C6.632,7.839,6.935,7.771,7.259,7.714z"/>
		<path d="M8.678,20.562c0.692,0.064,1.428,0.097,2.193,0.097c0.127,0,0.251-0.003,0.376-0.005l6.915-6.265v-0.472
			c-0.818,0.551-2.06,0.951-3.481,1.207L8.678,20.562z"/>
		<path d="M15.122,20.265l3.04-2.752v-2.421l-6.111,5.537C13.186,20.575,14.23,20.448,15.122,20.265z"/>
		<path d="M18.162,18.574v-0.36l-1.963,1.779C17.413,19.621,18.162,19.125,18.162,18.574z"/>
		<path d="M10.872,15.449l-5.094,4.615c0.634,0.177,1.379,0.321,2.205,0.422l5.761-5.22C12.819,15.385,11.848,15.449,10.872,15.449z
			"/>
		<path d="M3.579,15.106l0.827-0.75c-0.304-0.136-0.588-0.279-0.827-0.44V15.106z"/>
		<path d="M3.579,18.229l3.438-3.114c-0.757-0.138-1.465-0.314-2.079-0.537l-1.36,1.233V18.229z"/>
		<path d="M7.669,15.228l-4.012,3.637c0.186,0.383,0.731,0.733,1.543,1.02l4.912-4.451C9.279,15.405,8.453,15.342,7.669,15.228z"/>
	</g>
</g>
<g>
</g>
<g>
</g>
<g>
</g>
<g>
</g>
<g>
</g>
<g>
</g>
<g>
</g>
<g>
</g>
<g>
</g>
<g>
</g>
<g>
</g>
<g>
</g>
<g>
</g>
<g>
</g>
<g>
</g>
</svg>
